<svg xmlns="http://www.w3.org/2000/svg" viewBox="0 0 272.87 36.55"><defs><style>.cls-1{fill:#fff;}</style></defs><title>Asset 1</title><g id="Layer_2" data-name="Layer 2"><g id="Layer_1-2" data-name="Layer 1"><path class="cls-1" d="M0,11.08H9.76a14.89,14.89,0,0,1,5.39.95,12.72,12.72,0,0,1,4.22,2.63,11.66,11.66,0,0,1,2.73,3.95,12.31,12.31,0,0,1,1,4.92v.07a12.43,12.43,0,0,1-1,4.93,11.55,11.55,0,0,1-2.73,4,12.93,12.93,0,0,1-4.22,2.65,14.68,14.68,0,0,1-5.39,1H0ZM9.76,31.15a8.48,8.48,0,0,0,3.08-.54,6.66,6.66,0,0,0,2.38-1.54,7.31,7.31,0,0,0,1.54-2.36,8.19,8.19,0,0,0,.55-3V23.6a8.34,8.34,0,0,0-.55-3,7.28,7.28,0,0,0-1.54-2.4,7,7,0,0,0-2.38-1.55,8.28,8.28,0,0,0-3.08-.56H5.51v15.1Z"/><path class="cls-1" d="M32.15,11.08H43.6q4.76,0,7.29,2.54A7.74,7.74,0,0,1,53,19.34v.07a7.87,7.87,0,0,1-1.49,5,8.61,8.61,0,0,1-3.88,2.81l6.12,8.94H47.35L42,28.1H37.66v8H32.15ZM43.24,23.24a4.6,4.6,0,0,0,3.13-1,3.32,3.32,0,0,0,1.09-2.58v-.07A3.19,3.19,0,0,0,46.32,17a5.06,5.06,0,0,0-3.19-.9H37.66v7.19Z"/><rect class="cls-1" x="62.44" y="11.08" width="5.51" height="25.03"/><path class="cls-1" d="M78.39,11.08H88.62a12,12,0,0,1,4,.63,8.29,8.29,0,0,1,3,1.77,7.72,7.72,0,0,1,1.9,2.73,9.14,9.14,0,0,1,.66,3.53v.07a8.66,8.66,0,0,1-.79,3.82,7.73,7.73,0,0,1-2.16,2.76A9.37,9.37,0,0,1,92,28.05a13.66,13.66,0,0,1-4,.56H83.9v7.51H78.39Zm9.88,12.63a4.45,4.45,0,0,0,3.21-1.1,3.54,3.54,0,0,0,1.15-2.7v-.07A3.4,3.4,0,0,0,91.43,17a5,5,0,0,0-3.27-1H83.9v7.66Z"/><path class="cls-1" d="M135.15,36.55a13.61,13.61,0,0,1-5.33-1,13.26,13.26,0,0,1-4.21-2.76,12.3,12.3,0,0,1-2.75-4.07,12.82,12.82,0,0,1-1-5V23.6a12.65,12.65,0,0,1,1-5,12.81,12.81,0,0,1,7-6.9,13.78,13.78,0,0,1,5.35-1,13.6,13.6,0,0,1,5.32,1,13.15,13.15,0,0,1,4.21,2.76,12.15,12.15,0,0,1,2.75,4.07,12.79,12.79,0,0,1,1,5v.07a12.58,12.58,0,0,1-1,5,12.78,12.78,0,0,1-2.77,4.12,13,13,0,0,1-4.22,2.79,13.73,13.73,0,0,1-5.34,1m.07-5.08a7.64,7.64,0,0,0,3-.61,7,7,0,0,0,2.37-1.68,8,8,0,0,0,1.54-2.49,8.19,8.19,0,0,0,.56-3V23.6a8.33,8.33,0,0,0-.56-3,7.52,7.52,0,0,0-1.57-2.5,7.48,7.48,0,0,0-5.45-2.33,7.4,7.4,0,0,0-3.06.61A6.78,6.78,0,0,0,129.73,18a7.73,7.73,0,0,0-1.54,2.49,8.14,8.14,0,0,0-.55,3v.07a8.32,8.32,0,0,0,.55,3,7.53,7.53,0,0,0,4,4.2,7.28,7.28,0,0,0,3.06.63"/><polygon class="cls-1" points="157.57 11.08 163.08 11.08 163.08 31.14 175.56 31.14 175.56 36.12 157.57 36.12 157.57 11.08"/><path class="cls-1" d="M196.05,36.55a13.65,13.65,0,0,1-5.33-1,13.22,13.22,0,0,1-4.2-2.76,12.15,12.15,0,0,1-2.75-4.07,12.82,12.82,0,0,1-1-5V23.6a12.82,12.82,0,0,1,8-11.93,14.46,14.46,0,0,1,10.67,0,13.22,13.22,0,0,1,4.2,2.76,12.33,12.33,0,0,1,2.76,4.07,13,13,0,0,1,1,5v.07a12.57,12.57,0,0,1-1,5,12.78,12.78,0,0,1-7,6.91,13.82,13.82,0,0,1-5.35,1m.07-5.08a7.61,7.61,0,0,0,3-.61,7.13,7.13,0,0,0,2.38-1.68,8,8,0,0,0,1.54-2.49,8.18,8.18,0,0,0,.55-3V23.6a8.32,8.32,0,0,0-.55-3,7.54,7.54,0,0,0-1.58-2.5,7.43,7.43,0,0,0-5.45-2.33,7.43,7.43,0,0,0-3.06.61A6.88,6.88,0,0,0,190.63,18a7.91,7.91,0,0,0-1.54,2.49,8.35,8.35,0,0,0-.55,3v.07a8.54,8.54,0,0,0,.55,3,7.54,7.54,0,0,0,1.58,2.5,7.66,7.66,0,0,0,2.39,1.7,7.28,7.28,0,0,0,3.06.63"/><path class="cls-1" d="M230.53,36.55a14.35,14.35,0,0,1-5.35-1,12,12,0,0,1-6.85-6.76,13.53,13.53,0,0,1-1-5.15V23.6a12.82,12.82,0,0,1,7.86-11.93,13.33,13.33,0,0,1,5.26-1,19.06,19.06,0,0,1,3.06.23,14.73,14.73,0,0,1,2.56.67,11.57,11.57,0,0,1,2.21,1.07,16.38,16.38,0,0,1,2,1.47l-3.47,4.18a14.36,14.36,0,0,0-1.43-1.07,9.67,9.67,0,0,0-1.49-.79,9,9,0,0,0-1.66-.5,10,10,0,0,0-2-.18,6.35,6.35,0,0,0-2.8.63A7.5,7.5,0,0,0,225.22,18a7.68,7.68,0,0,0-1.54,2.48,8.2,8.2,0,0,0-.56,3v.07a8.84,8.84,0,0,0,.56,3.17,7.55,7.55,0,0,0,1.57,2.53,7.18,7.18,0,0,0,2.4,1.66,7.59,7.59,0,0,0,3.06.59,8.62,8.62,0,0,0,5.18-1.51v-3.6h-5.54V21.7h10.87V32.57a18.11,18.11,0,0,1-4.6,2.81,15,15,0,0,1-6.09,1.17"/><polygon class="cls-1" points="257.74 26.25 248.12 11.08 254.56 11.08 260.53 21.13 266.61 11.08 272.87 11.08 263.25 26.14 263.25 36.12 257.74 36.12 257.74 26.25"/><path class="cls-1" d="M.05,11H9.81a14.79,14.79,0,0,1,5.38.95,12.62,12.62,0,0,1,4.22,2.63,11.55,11.55,0,0,1,2.74,3.95,12.55,12.55,0,0,1,1,4.92v.07a12.65,12.65,0,0,1-1,4.94,11.54,11.54,0,0,1-2.74,4A12.81,12.81,0,0,1,15.19,35a14.39,14.39,0,0,1-5.38,1H.05ZM9.81,31a8.48,8.48,0,0,0,3.08-.54A6.66,6.66,0,0,0,15.27,29,7.18,7.18,0,0,0,16.8,26.6a8,8,0,0,0,.56-3v-.07a8.14,8.14,0,0,0-.56-3,7.11,7.11,0,0,0-1.53-2.39,6.84,6.84,0,0,0-2.38-1.56,8.28,8.28,0,0,0-3.08-.56H5.56V31Z"/><path class="cls-1" d="M32.2,11H43.64c3.17,0,5.61.85,7.3,2.54a7.75,7.75,0,0,1,2.15,5.73v.07a7.84,7.84,0,0,1-1.49,5,8.59,8.59,0,0,1-3.88,2.81L53.84,36H47.4L42,28H37.71v8H32.2ZM43.29,23.13a4.6,4.6,0,0,0,3.13-1,3.3,3.3,0,0,0,1.09-2.58v-.07a3.21,3.21,0,0,0-1.15-2.68A5,5,0,0,0,43.18,16H37.71v7.18Z"/><rect class="cls-1" x="62.49" y="10.97" width="5.51" height="25.03"/><path class="cls-1" d="M78.44,11H88.67a11.94,11.94,0,0,1,4,.63,8.63,8.63,0,0,1,3,1.77,7.73,7.73,0,0,1,1.89,2.74,8.91,8.91,0,0,1,.67,3.52v.07a8.88,8.88,0,0,1-.79,3.83,8,8,0,0,1-2.16,2.75,9.46,9.46,0,0,1-3.22,1.66,13.66,13.66,0,0,1-4,.56H84V36H78.44ZM88.31,23.6a4.45,4.45,0,0,0,3.22-1.09,3.6,3.6,0,0,0,1.15-2.7v-.07a3.42,3.42,0,0,0-1.2-2.83,5.1,5.1,0,0,0-3.27-1H84V23.6Z"/><path class="cls-1" d="M116.81,8.74a5.78,5.78,0,0,1-11.55,0C105.26,4.43,110.55,0,111,0s5.78,4.14,5.78,8.74"/></g></g></svg>